<svg width="97" height="18" viewBox="0 0 97 18" fill="none" xmlns="http://www.w3.org/2000/svg">
<path d="M92.9502 7.17758C92.4855 7.17758 92.0394 7.25193 91.6119 7.40063C91.203 7.54934 90.8405 7.77239 90.5245 8.0698C90.2271 8.34862 89.9855 8.70179 89.7996 9.12931C89.6137 9.55683 89.5208 10.0587 89.5208 10.6349C89.5208 11.7874 89.8461 12.6517 90.4966 13.2279C91.1658 13.8042 91.9744 14.0923 92.9224 14.0923C93.48 14.0923 93.9633 14.0272 94.3722 13.8971C94.7812 13.767 95.1436 13.6276 95.4596 13.4789C95.8314 13.7391 96.1102 14.0272 96.2961 14.3432C96.482 14.6406 96.5749 15.0031 96.5749 15.4306C96.5749 16.1927 96.2124 16.7875 95.4875 17.2151C94.7626 17.624 93.7588 17.8285 92.4763 17.8285C91.3052 17.8285 90.2457 17.6612 89.2977 17.3266C88.3497 16.9734 87.5319 16.4901 86.8441 15.8767C86.1749 15.2447 85.6545 14.4919 85.2827 13.6183C84.911 12.7447 84.7251 11.7781 84.7251 10.7186C84.7251 9.49177 84.9203 8.42297 85.3106 7.51216C85.7196 6.58277 86.2679 5.82066 86.9556 5.22585C87.6434 4.63103 88.4334 4.18492 89.3256 3.88752C90.2364 3.59011 91.1937 3.44141 92.1974 3.44141C93.5358 3.44141 94.5674 3.68305 95.2923 4.16634C96.0173 4.64962 96.3797 5.27232 96.3797 6.03442C96.3797 6.38759 96.2961 6.72217 96.1288 7.03817C95.9615 7.33558 95.7663 7.59581 95.5433 7.81886C95.2273 7.67016 94.8462 7.53075 94.4001 7.40063C93.954 7.25193 93.4707 7.17758 92.9502 7.17758Z" fill="#FE1C64"/>
<path d="M79.7173 7.17758C79.2526 7.17758 78.8065 7.25193 78.379 7.40063C77.9701 7.54934 77.6076 7.77239 77.2916 8.0698C76.9942 8.34862 76.7526 8.70179 76.5667 9.12931C76.3808 9.55683 76.2879 10.0587 76.2879 10.6349C76.2879 11.7874 76.6132 12.6517 77.2637 13.2279C77.9329 13.8042 78.7415 14.0923 79.6895 14.0923C80.2471 14.0923 80.7304 14.0272 81.1393 13.8971C81.5482 13.767 81.9107 13.6276 82.2267 13.4789C82.5985 13.7391 82.8773 14.0272 83.0632 14.3432C83.249 14.6406 83.342 15.0031 83.342 15.4306C83.342 16.1927 82.9795 16.7875 82.2546 17.2151C81.5297 17.624 80.5259 17.8285 79.2433 17.8285C78.0723 17.8285 77.0128 17.6612 76.0648 17.3266C75.1168 16.9734 74.299 16.4901 73.6112 15.8767C72.942 15.2447 72.4216 14.4919 72.0498 13.6183C71.6781 12.7447 71.4922 11.7781 71.4922 10.7186C71.4922 9.49177 71.6874 8.42297 72.0777 7.51216C72.4866 6.58277 73.035 5.82066 73.7227 5.22585C74.4105 4.63103 75.2005 4.18492 76.0927 3.88752C77.0035 3.59011 77.9608 3.44141 78.9645 3.44141C80.3029 3.44141 81.3345 3.68305 82.0594 4.16634C82.7843 4.64962 83.1468 5.27232 83.1468 6.03442C83.1468 6.38759 83.0632 6.72217 82.8959 7.03817C82.7286 7.33558 82.5334 7.59581 82.3104 7.81886C81.9944 7.67016 81.6133 7.53075 81.1672 7.40063C80.7211 7.25193 80.2378 7.17758 79.7173 7.17758Z" fill="#FE1C64"/>
<path d="M58.7746 1.01507C59.0906 0.829189 59.5646 0.652603 60.1966 0.485312C60.8472 0.31802 61.4978 0.234375 62.1483 0.234375C63.0777 0.234375 63.8956 0.373785 64.602 0.652604C65.3269 0.912835 65.7916 1.33106 65.996 1.90729C66.3306 2.87386 66.6931 3.99843 67.0834 5.281C67.4738 6.56356 67.8641 7.8926 68.2545 9.2681C68.6448 10.625 69.0259 11.9726 69.3976 13.311C69.7694 14.6307 70.0947 15.8018 70.3735 16.8241C70.1504 17.0843 69.8159 17.2888 69.3697 17.4375C68.9236 17.6048 68.3939 17.6884 67.7805 17.6884C67.3344 17.6884 66.9533 17.6513 66.6373 17.5769C66.3399 17.5026 66.089 17.391 65.8845 17.2423C65.6986 17.0936 65.5406 16.8984 65.4105 16.6568C65.299 16.4152 65.1968 16.1363 65.1038 15.8203L64.602 13.8965H59.5553C59.4066 14.4541 59.2579 15.0304 59.1092 15.6252C58.9605 16.22 58.8118 16.7962 58.6631 17.3538C58.4029 17.4468 58.1241 17.5211 57.8267 17.5769C57.5478 17.6513 57.204 17.6884 56.795 17.6884C55.847 17.6884 55.1407 17.5304 54.676 17.2144C54.2299 16.8799 54.0068 16.4245 54.0068 15.8482C54.0068 15.588 54.044 15.3278 54.1184 15.0675C54.1927 14.8073 54.2764 14.5006 54.3693 14.1474C54.4994 13.6456 54.676 13.0229 54.8991 12.2793C55.1407 11.5358 55.4009 10.7365 55.6797 9.88151C55.9586 9.00787 56.256 8.11565 56.572 7.20484C56.888 6.29404 57.1854 5.43899 57.4642 4.63971C57.743 3.82184 57.9939 3.09692 58.217 2.46493C58.4586 1.83294 58.6445 1.34965 58.7746 1.01507ZM62.1205 4.61183C61.8602 5.39252 61.5628 6.26616 61.2282 7.23273C60.9122 8.18071 60.6241 9.14728 60.3639 10.1324H63.8213C63.561 9.12869 63.2915 8.15283 63.0127 7.20484C62.7524 6.23827 62.5108 5.37394 62.2878 4.61183H62.1205Z" fill="#FE1C64"/>
<path d="M48.3912 12.7537C48.3912 13.2369 48.5399 13.5808 48.8373 13.7853C49.1533 13.9898 49.5901 14.092 50.1477 14.092C50.4266 14.092 50.7147 14.0734 51.0121 14.0362C51.3095 13.9805 51.5697 13.9154 51.7928 13.841C51.9601 14.0455 52.0995 14.2779 52.211 14.5381C52.3411 14.7797 52.4062 15.0771 52.4062 15.4303C52.4062 16.1367 52.1367 16.7129 51.5976 17.159C51.0771 17.6051 50.1477 17.8282 48.8094 17.8282C47.1737 17.8282 45.9097 17.4564 45.0175 16.7129C44.1438 15.9694 43.707 14.7612 43.707 13.0882V1.1548C43.9115 1.09903 44.1996 1.04327 44.5714 0.987504C44.9617 0.913152 45.3707 0.875977 45.7982 0.875977C46.616 0.875977 47.248 1.02468 47.6941 1.32209C48.1588 1.60091 48.3912 2.20501 48.3912 3.13441V4.91885H52.0437C52.1552 5.12332 52.2575 5.38355 52.3504 5.69954C52.4619 5.99695 52.5177 6.33153 52.5177 6.70329C52.5177 7.35387 52.369 7.82786 52.0716 8.12527C51.7928 8.40408 51.4117 8.54349 50.9284 8.54349H48.3912V12.7537Z" fill="#212B36"/>
<path d="M36.9284 17.3818C36.7425 17.4376 36.4451 17.4933 36.0362 17.5491C35.6458 17.6049 35.2369 17.6327 34.8094 17.6327C34.4004 17.6327 34.0287 17.6049 33.6941 17.5491C33.3781 17.4933 33.1086 17.3818 32.8855 17.2145C32.6625 17.0472 32.4859 16.8242 32.3558 16.5454C32.2442 16.2479 32.1885 15.8669 32.1885 15.4022V7.03763C32.1885 6.61011 32.2628 6.24764 32.4115 5.95024C32.5788 5.63424 32.8112 5.35542 33.1086 5.11378C33.406 4.87214 33.7684 4.65838 34.196 4.4725C34.6421 4.26803 35.1161 4.09145 35.6179 3.94274C36.1198 3.79404 36.6403 3.68251 37.1793 3.60816C37.7184 3.51522 38.2574 3.46875 38.7965 3.46875C39.6887 3.46875 40.395 3.64534 40.9155 3.99851C41.436 4.33309 41.6962 4.89072 41.6962 5.67142C41.6962 5.93165 41.659 6.19188 41.5847 6.45211C41.5103 6.69375 41.4174 6.91681 41.3059 7.12127C40.9155 7.12127 40.5159 7.13986 40.1069 7.17704C39.698 7.21422 39.2984 7.26998 38.908 7.34433C38.5177 7.41868 38.1459 7.50233 37.7927 7.59527C37.4582 7.66962 37.17 7.76256 36.9284 7.87409V17.3818Z" fill="#212B36"/>
<path d="M29.8757 10.6349C29.8757 11.7874 29.6991 12.819 29.346 13.7298C28.9928 14.622 28.4909 15.3749 27.8404 15.9883C27.2084 16.6017 26.4463 17.0664 25.554 17.3823C24.6618 17.6983 23.6674 17.8563 22.5707 17.8563C21.474 17.8563 20.4795 17.689 19.5873 17.3545C18.6951 17.0199 17.9237 16.5459 17.2731 15.9325C16.6411 15.3005 16.1486 14.5384 15.7954 13.6462C15.4422 12.754 15.2656 11.7502 15.2656 10.6349C15.2656 9.53824 15.4422 8.54379 15.7954 7.65157C16.1486 6.75935 16.6411 6.00654 17.2731 5.39314C17.9237 4.76115 18.6951 4.27786 19.5873 3.94328C20.4795 3.6087 21.474 3.44141 22.5707 3.44141C23.6674 3.44141 24.6618 3.61799 25.554 3.97116C26.4463 4.30575 27.2084 4.78903 27.8404 5.42102C28.4909 6.03442 28.9928 6.78723 29.346 7.67945C29.6991 8.57167 29.8757 9.55683 29.8757 10.6349ZM20.1171 10.6349C20.1171 11.7688 20.3308 12.6424 20.7584 13.2558C21.2045 13.8506 21.8179 14.148 22.5986 14.148C23.3793 14.148 23.9741 13.8413 24.383 13.2279C24.8105 12.6145 25.0243 11.7502 25.0243 10.6349C25.0243 9.51966 24.8105 8.66461 24.383 8.0698C23.9555 7.4564 23.3514 7.1497 22.5707 7.1497C21.79 7.1497 21.1859 7.4564 20.7584 8.0698C20.3308 8.66461 20.1171 9.51966 20.1171 10.6349Z" fill="#212B36"/>
<path d="M6.75009 8.34786C7.53078 8.34786 8.12559 8.17128 8.53453 7.81811C8.96205 7.44635 9.17581 6.88871 9.17581 6.14519C9.17581 5.43885 8.95275 4.8998 8.50664 4.52804C8.07912 4.1377 7.44713 3.94253 6.61068 3.94253C6.31327 3.94253 6.06233 3.95182 5.85787 3.97041C5.67199 3.97041 5.47681 3.989 5.27235 4.02617V8.34786H6.75009ZM5.30023 17.2979C5.09576 17.3537 4.77047 17.4095 4.32436 17.4652C3.89684 17.521 3.46932 17.5489 3.0418 17.5489C2.61427 17.5489 2.23322 17.5117 1.89864 17.4374C1.58264 17.3816 1.31312 17.2701 1.09006 17.1028C0.867009 16.9355 0.699717 16.7031 0.58819 16.4057C0.476662 16.1083 0.420898 15.718 0.420898 15.2347V2.10232C0.420898 1.71197 0.523132 1.41457 0.727599 1.2101C0.950654 0.987046 1.24806 0.810461 1.61982 0.680346C2.25181 0.457291 2.96744 0.299293 3.76672 0.206354C4.58459 0.0948268 5.40246 0.0390625 6.22033 0.0390625C8.78546 0.0390625 10.7465 0.587406 12.1034 1.68409C13.4603 2.78078 14.1388 4.26781 14.1388 6.14519C14.1388 7.056 13.9901 7.88316 13.6927 8.62668C13.4139 9.35161 12.9863 9.9836 12.4101 10.5226C11.8525 11.0431 11.1368 11.452 10.2632 11.7494C9.40816 12.0283 8.4137 12.1677 7.27984 12.1677H5.30023V17.2979Z" fill="#212B36"/>
</svg>
