<svg width="131" height="24" viewBox="0 0 131 24" fill="none" xmlns="http://www.w3.org/2000/svg">
<path d="M125.372 9.61587C124.746 9.61587 124.145 9.71603 123.569 9.91634C123.018 10.1167 122.53 10.4171 122.104 10.8178C121.704 11.1933 121.378 11.6691 121.128 12.245C120.877 12.8209 120.752 13.4969 120.752 14.2731C120.752 15.8256 121.19 16.9899 122.067 17.7661C122.968 18.5423 124.057 18.9304 125.334 18.9304C126.085 18.9304 126.736 18.8428 127.287 18.6675C127.838 18.4922 128.326 18.3045 128.752 18.1041C129.253 18.4547 129.628 18.8428 129.879 19.2685C130.129 19.6691 130.254 20.1573 130.254 20.7332C130.254 21.7598 129.766 22.5611 128.79 23.137C127.813 23.6879 126.461 23.9633 124.733 23.9633C123.156 23.9633 121.729 23.7379 120.452 23.2872C119.175 22.8115 118.073 22.1605 117.146 21.3342C116.245 20.4829 115.544 19.4688 115.043 18.2919C114.542 17.1151 114.292 15.8131 114.292 14.3858C114.292 12.7332 114.555 11.2935 115.081 10.0666C115.632 8.81462 116.37 7.78802 117.297 6.98677C118.223 6.18551 119.287 5.58457 120.489 5.18395C121.716 4.78332 123.006 4.58301 124.358 4.58301C126.161 4.58301 127.55 4.90852 128.527 5.55954C129.503 6.21055 129.992 7.04936 129.992 8.07597C129.992 8.55171 129.879 9.00241 129.654 9.42808C129.428 9.82871 129.165 10.1793 128.865 10.4797C128.439 10.2794 127.926 10.0916 127.325 9.91634C126.724 9.71603 126.073 9.61587 125.372 9.61587Z" fill="#FE1C64"/>
<path d="M107.546 9.61587C106.92 9.61587 106.319 9.71603 105.743 9.91634C105.192 10.1167 104.704 10.4171 104.279 10.8178C103.878 11.1933 103.552 11.6691 103.302 12.245C103.052 12.8209 102.926 13.4969 102.926 14.2731C102.926 15.8256 103.365 16.9899 104.241 17.7661C105.142 18.5423 106.232 18.9304 107.509 18.9304C108.26 18.9304 108.911 18.8428 109.462 18.6675C110.012 18.4922 110.501 18.3045 110.926 18.1041C111.427 18.4547 111.803 18.8428 112.053 19.2685C112.304 19.6691 112.429 20.1573 112.429 20.7332C112.429 21.7598 111.94 22.5611 110.964 23.137C109.987 23.6879 108.635 23.9633 106.908 23.9633C105.33 23.9633 103.903 23.7379 102.626 23.2872C101.349 22.8115 100.247 22.1605 99.3208 21.3342C98.4194 20.4829 97.7183 19.4688 97.2175 18.2919C96.7167 17.1151 96.4663 15.8131 96.4663 14.3858C96.4663 12.7332 96.7292 11.2935 97.255 10.0666C97.8059 8.81462 98.5446 7.78802 99.471 6.98677C100.397 6.18551 101.462 5.58457 102.663 5.18395C103.89 4.78332 105.18 4.58301 106.532 4.58301C108.335 4.58301 109.725 4.90852 110.701 5.55954C111.678 6.21055 112.166 7.04936 112.166 8.07597C112.166 8.55171 112.053 9.00241 111.828 9.42808C111.602 9.82871 111.34 10.1793 111.039 10.4797C110.613 10.2794 110.1 10.0916 109.499 9.91634C108.898 9.71603 108.247 9.61587 107.546 9.61587Z" fill="#FE1C64"/>
<path d="M79.3346 1.31434C79.7603 1.06395 80.3988 0.826075 81.2501 0.600723C82.1265 0.375371 83.0029 0.262695 83.8792 0.262695C85.1312 0.262695 86.2329 0.450489 87.1844 0.826077C88.1609 1.17662 88.7869 1.74001 89.0623 2.51622C89.513 3.81825 90.0013 5.33312 90.5271 7.06082C91.053 8.78852 91.5788 10.5788 92.1046 12.4317C92.6304 14.2596 93.1437 16.0749 93.6445 17.8777C94.1453 19.6555 94.5835 21.233 94.9591 22.6101C94.6586 22.9607 94.2079 23.2361 93.6069 23.4364C93.006 23.6618 92.2924 23.7744 91.4661 23.7744C90.8652 23.7744 90.3519 23.7244 89.9262 23.6242C89.5256 23.524 89.1875 23.3738 88.9121 23.1735C88.6617 22.9732 88.4489 22.7103 88.2736 22.3848C88.1234 22.0593 87.9857 21.6837 87.8605 21.258L87.1844 18.6665H80.3863C80.186 19.4176 79.9857 20.1938 79.7853 20.9951C79.585 21.7963 79.3847 22.5726 79.1844 23.3237C78.8339 23.4489 78.4583 23.5491 78.0576 23.6242C77.6821 23.7244 77.2188 23.7744 76.668 23.7744C75.391 23.7744 74.4395 23.5616 73.8135 23.1359C73.2126 22.6852 72.9121 22.0718 72.9121 21.2956C72.9121 20.945 72.9622 20.5945 73.0623 20.2439C73.1625 19.8934 73.2752 19.4802 73.4004 19.0045C73.5756 18.3284 73.8135 17.4896 74.114 16.4881C74.4395 15.4865 74.79 14.4098 75.1656 13.258C75.5412 12.0812 75.9418 10.8793 76.3675 9.65237C76.7932 8.42545 77.1938 7.27365 77.5694 6.19697C77.945 5.09525 78.283 4.11872 78.5835 3.26739C78.909 2.41606 79.1594 1.76504 79.3346 1.31434ZM83.8417 6.15941C83.4911 7.21105 83.0905 8.38789 82.6398 9.68993C82.2141 10.9669 81.826 12.269 81.4755 13.596H86.1328C85.7822 12.2439 85.4191 10.9294 85.0436 9.65237C84.693 8.35033 84.3675 7.18602 84.067 6.15941H83.8417Z" fill="#FE1C64"/>
<path d="M65.3475 17.127C65.3475 17.778 65.5478 18.2412 65.9484 18.5166C66.3741 18.7921 66.9625 18.9298 67.7137 18.9298C68.0892 18.9298 68.4774 18.9047 68.878 18.8547C69.2786 18.7795 69.6292 18.6919 69.9296 18.5917C70.155 18.8672 70.3428 19.1802 70.493 19.5307C70.6683 19.8562 70.7559 20.2568 70.7559 20.7326C70.7559 21.6841 70.3928 22.4603 69.6667 23.0612C68.9656 23.6622 67.7137 23.9626 65.9108 23.9626C63.7074 23.9626 62.0047 23.4619 60.8029 22.4603C59.626 21.4587 59.0376 19.8312 59.0376 17.5777V1.50254C59.313 1.42742 59.7011 1.35231 60.2019 1.27719C60.7277 1.17703 61.2786 1.12695 61.8545 1.12695C62.9562 1.12695 63.8076 1.32727 64.4085 1.72789C65.0345 2.10348 65.3475 2.91725 65.3475 4.16921V6.57296H70.2676C70.4179 6.84839 70.5556 7.19894 70.6808 7.62461C70.831 8.02523 70.9061 8.47594 70.9061 8.97672C70.9061 9.85309 70.7058 10.4916 70.3052 10.8922C69.9296 11.2678 69.4163 11.4556 68.7653 11.4556H65.3475V17.127Z" fill="white"/>
<path d="M49.9065 23.3619C49.6561 23.437 49.2554 23.5121 48.7046 23.5873C48.1788 23.6624 47.6279 23.6999 47.052 23.6999C46.5011 23.6999 46.0004 23.6624 45.5497 23.5873C45.124 23.5121 44.7609 23.3619 44.4605 23.1366C44.16 22.9112 43.9221 22.6107 43.7468 22.2351C43.5966 21.8345 43.5215 21.3212 43.5215 20.6952V9.42763C43.5215 8.85173 43.6216 8.36347 43.822 7.96284C44.0473 7.53717 44.3603 7.16159 44.7609 6.83608C45.1615 6.51057 45.6498 6.22262 46.2257 5.97223C46.8266 5.6968 47.4651 5.45893 48.1412 5.25862C48.8173 5.0583 49.5184 4.90807 50.2445 4.80791C50.9706 4.68271 51.6968 4.62012 52.4229 4.62012C53.6248 4.62012 54.5763 4.85799 55.2774 5.33373C55.9784 5.78444 56.329 6.53561 56.329 7.58725C56.329 7.9378 56.2789 8.28835 56.1788 8.6389C56.0786 8.9644 55.9534 9.26487 55.8032 9.5403C55.2774 9.5403 54.739 9.56534 54.1882 9.61542C53.6373 9.6655 53.0989 9.74062 52.5731 9.84077C52.0473 9.94093 51.5465 10.0536 51.0708 10.1788C50.6201 10.279 50.232 10.4042 49.9065 10.5544V23.3619Z" fill="white"/>
<path d="M40.4063 14.2732C40.4063 15.8256 40.1685 17.2153 39.6927 18.4422C39.217 19.644 38.5409 20.6581 37.6646 21.4844C36.8132 22.3107 35.7866 22.9367 34.5847 23.3624C33.3829 23.788 32.0433 24.0009 30.566 24.0009C29.0887 24.0009 27.7491 23.7755 26.5472 23.3248C25.3453 22.8741 24.3062 22.2356 23.4298 21.4093C22.5785 20.558 21.9149 19.5314 21.4392 18.3295C20.9635 17.1276 20.7256 15.7755 20.7256 14.2732C20.7256 12.7958 20.9635 11.4562 21.4392 10.2544C21.9149 9.05249 22.5785 8.03841 23.4298 7.21212C24.3062 6.36079 25.3453 5.70977 26.5472 5.25907C27.7491 4.80836 29.0887 4.58301 30.566 4.58301C32.0433 4.58301 33.3829 4.82088 34.5847 5.29662C35.7866 5.74733 36.8132 6.39835 37.6646 7.24968C38.5409 8.07597 39.217 9.09005 39.6927 10.2919C40.1685 11.4938 40.4063 12.8209 40.4063 14.2732ZM27.2608 14.2732C27.2608 15.8005 27.5487 16.9774 28.1246 17.8037C28.7256 18.6049 29.5519 19.0055 30.6035 19.0055C31.6552 19.0055 32.4564 18.5924 33.0073 17.7661C33.5832 16.9398 33.8711 15.7755 33.8711 14.2732C33.8711 12.7708 33.5832 11.619 33.0073 10.8178C32.4314 9.99146 31.6176 9.57831 30.566 9.57831C29.5143 9.57831 28.7005 9.99146 28.1246 10.8178C27.5487 11.619 27.2608 12.7708 27.2608 14.2732Z" fill="white"/>
<path d="M9.25483 11.1925C10.3065 11.1925 11.1077 10.9546 11.6586 10.4789C12.2345 9.97809 12.5224 9.22692 12.5224 8.22535C12.5224 7.27386 12.222 6.54773 11.621 6.04695C11.0451 5.52113 10.1938 5.25822 9.06703 5.25822C8.66641 5.25822 8.32838 5.27074 8.05295 5.29577C7.80256 5.29577 7.53965 5.32081 7.26422 5.37089V11.1925H9.25483ZM7.30177 23.2488C7.02634 23.3239 6.58816 23.3991 5.98722 23.4742C5.41132 23.5493 4.83542 23.5869 4.25952 23.5869C3.68362 23.5869 3.17032 23.5368 2.71961 23.4366C2.29395 23.3615 1.93088 23.2113 1.63041 22.9859C1.32994 22.7606 1.10459 22.4476 0.954356 22.0469C0.804121 21.6463 0.729004 21.1205 0.729004 20.4695V2.77934C0.729004 2.25352 0.866719 1.85289 1.14215 1.57746C1.44262 1.27699 1.84324 1.03912 2.34403 0.86385C3.19536 0.56338 4.15936 0.350548 5.23605 0.225352C6.33777 0.0751181 7.43949 0 8.54121 0C11.9966 0 14.6382 0.738654 16.4661 2.21596C18.294 3.69327 19.2079 5.6964 19.2079 8.22535C19.2079 9.45227 19.0076 10.5665 18.6069 11.5681C18.2314 12.5446 17.6555 13.3959 16.8792 14.1221C16.1281 14.8232 15.1641 15.374 13.9872 15.7746C12.8354 16.1502 11.4958 16.338 9.96844 16.338H7.30177V23.2488Z" fill="white"/>
</svg>
